<svg data-v-0dd9719b="" version="1.0" xmlns="http://www.w3.org/2000/svg" xmlns:xlink="http://www.w3.org/1999/xlink" width="100%" height="100%" viewBox="0 0 340.000000 250.000000" preserveAspectRatio="xMidYMid meet" color-interpolation-filters="sRGB" style="margin: auto;"> <rect data-v-0dd9719b="" x="0" y="0" width="100%" height="100%" fill="#fff" fill-opacity="1" class="background"></rect> <rect data-v-0dd9719b="" x="0" y="0" width="100%" height="100%" fill="url(#watermark)" fill-opacity="1" class="watermarklayer"></rect> <g data-v-0dd9719b="" fill="#333" class="icon-text-wrapper icon-svg-group iconsvg" transform="translate(48.37438201904297,93.5283870698487)"><g class="iconsvg-imagesvg" transform="translate(0,0)"><g><rect fill="#333" fill-opacity="0" stroke-width="2" x="0" y="0" width="60" height="62.94322521085981" class="image-rect"></rect> <svg x="0" y="0" width="60" height="62.94322521085981" filtersec="colorsb4786690320" class="image-svg-svg primary" style="overflow: visible;"><svg xmlns="http://www.w3.org/2000/svg" viewBox="-0.0009527206420898438 0.0028464198112487793 95.31793975830078 99.99372863769531"><path d="M28.32 28.9c-3.09-.5-5.36-.11-6.39 1.32-3 4.14 5.63 15.4 19.2 25.14s27 14.29 30 10.15c1-1.43.67-3.71-.79-6.48 5.31 6.5 7.6 12.08 5.53 15-3.83 5.35-21.15-.52-38.68-13.1S8.54 33.79 12.38 28.44c2.07-2.89 8.08-2.5 15.94.46z" fill="#333"></path><path d="M70.81 78.71c4.54.73 7.87.15 9.38-1.95 4.36-6.07-8.25-22.58-28.19-36.87S12.42 18.93 8.07 25c-1.51 2.1-1 5.44 1.15 9.5C1.43 25-1.93 16.79 1.11 12.56c5.63-7.84 31 .76 56.73 19.21s42 39.77 36.36 47.6c-3.04 4.24-11.86 3.63-23.39-.66z" fill="#ec1b23"></path><path d="M54.21 27.8c2.53-1.75 4.71-2.37 6.23-1.53 4.38 2.41 1.53 16-6.38 30.4S36.19 80.76 31.8 78.35c-1.51-.83-2.16-3-2-6.07-2 8-1.63 13.91 1.43 15.59 5.66 3.12 18.52-9.41 28.73-28s13.89-36.13 8.23-39.24c-3.1-1.63-8.27 1.23-13.98 7.17z" fill="#333"></path><path d="M38.75 88.82c-3.71 2.56-6.91 3.46-9.13 2.24-6.43-3.53-2.25-23.5 9.35-44.6s26.22-35.33 32.65-31.8c2.22 1.23 3.17 4.41 3 8.92C77.48 11.83 77 3.16 72.51.7c-8.3-4.57-27.16 13.81-42.13 41S10 94.74 18.31 99.3c4.48 2.47 12.06-1.77 20.44-10.48z" fill="#ec1b23"></path></svg></svg> <!----></g></g> <g transform="translate(67,19.945988655090332)"><g data-gra="path-name" fill-rule="" class="tp-name iconsvg-namesvg"><g transform="scale(1)"><g><path d="M17.48-10.2L11.2-10.23Q10.86-10.23 10.57-10.43 10.29-10.64 10.21-11.03 10.13-11.42 10.39-11.75 10.64-12.08 11.23-12.08L11.23-12.08 17.32-12.08Q18.32-12.08 18.84-11.99 19.36-11.89 19.63-11.64 19.89-11.39 20.02-10.89 20.14-10.39 20.14-9.73L20.14-9.73Q20.14-8.63 19.89-7.37 19.64-6.12 19.03-4.94 18.42-3.77 17.24-2.64 16.06-1.51 14.59-0.86 13.11-0.22 11.42-0.13L11.42-0.13Q9.41 0 8-0.47 6.59-0.94 5.73-1.41 4.86-1.88 3.84-2.93 2.82-3.98 2.24-5.08 1.66-6.18 1.33-7.47 1-8.75 0.96-9.71 0.91-10.67 0.94-11.67L0.94-11.67Q0.97-12.83 1.08-13.68 1.19-14.53 1.41-15.45 1.63-16.38 2.24-17.51 2.86-18.64 3.67-19.47 4.49-20.3 5.35-20.88 6.21-21.46 7.73-21.96 9.26-22.46 10.82-22.46L10.82-22.46Q11.7-22.46 13.01-22.2 14.31-21.93 15.42-21.27 16.53-20.61 17.54-19.61 18.54-18.61 19.2-17.21 19.86-15.81 19.8-15.22L19.8-15.22Q19.74-14.81 19.48-14.51 19.23-14.21 18.83-14.21L18.83-14.21Q18.51-14.21 18.28-14.37 18.04-14.53 17.77-15.45 17.51-16.38 16.94-17.24 16.38-18.1 15.34-18.97 14.31-19.83 13.35-20.21 12.39-20.58 10.86-20.58L10.86-20.58Q9.35-20.58 8.05-20.16 6.75-19.74 5.63-18.76 4.52-17.79 4-16.9 3.48-16 3.17-14.92 2.86-13.84 2.75-12.97 2.64-12.11 2.67-11.04L2.67-11.04Q2.67-10.42 2.75-9.57 2.82-8.72 3.17-7.56 3.51-6.4 4.16-5.52 4.8-4.64 5.55-3.95 6.31-3.26 7.01-2.87 7.72-2.48 8.63-2.27 9.54-2.07 10.54-2.1L10.54-2.1Q12.46-2.16 13.87-2.79 15.28-3.42 16.27-4.39 17.26-5.37 17.63-6.28 18.01-7.18 18.17-8.08 18.32-8.97 18.32-9.38L18.32-9.38Q18.29-9.76 18.09-9.98 17.88-10.2 17.48-10.2L17.48-10.2ZM24.54-8.82L24.57-21.27Q24.57-22.21 25.49-22.28 26.42-22.34 26.42-21.27L26.42-21.27 26.42-9.91Q26.42-7.84 26.76-6.59 27.11-5.33 27.53-4.61 27.96-3.89 28.93-3.11 29.9-2.32 30.9-1.98 31.91-1.63 33.07-1.69L33.07-1.69Q34.54-1.79 35.6-2.26 36.65-2.73 37.42-3.45 38.18-4.17 38.61-4.8 39.03-5.43 39.31-6.4 39.6-7.37 39.6-10.07L39.6-10.07 39.6-21.4Q39.6-22.31 40.58-22.4 41.57-22.5 41.57-21.43L41.57-21.43 41.57-8.69Q41.57-6.46 40.85-4.83 40.13-3.2 39.19-2.29 38.25-1.38 37.23-0.8 36.21-0.22 35.16 0.05 34.1 0.31 32.98 0.31L32.98 0.31Q31.28 0.31 30.07-0.17 28.87-0.66 27.78-1.49 26.7-2.32 25.92-3.47 25.13-4.61 25.04-5.52L25.04-5.52 24.54-8.82ZM60.62-5.65L48.57-5.65 46.09-0.25Q45.96 0 45.73 0.16 45.49 0.31 45.16 0.33 44.84 0.35 44.58 0.05 44.33-0.25 44.29-0.5 44.24-0.75 44.36-1L44.36-1 52.62-19.89Q53.34-21.52 53.76-21.84 54.19-22.15 54.59-22.15L54.59-22.15Q54.97-22.15 55.41-21.88 55.85-21.62 56.07-21.12L56.07-21.12 64.44-1.85Q64.88-0.88 64.84-0.55 64.79-0.22 64.51 0.05 64.23 0.31 63.85 0.28L63.85 0.28Q63.53 0.28 63.28 0.09 63.03-0.09 62.78-0.69L62.78-0.69 60.62-5.65ZM49.32-7.5L59.96-7.5 59.55-8.44 55.13-18.86Q54.81-19.58 54.64-19.56 54.47-19.55 54.28-19.11L54.28-19.11 49.32-7.5ZM77.12-7.12L69.81-19.08 69.37-19.83Q69.21-19.92 69.17-19.89 69.12-19.86 69.12-19.78 69.12-19.7 69.12-19.33L69.12-19.33 69.15-15.75 69.15-0.82Q69.15 0.03 68.16 0.03 67.17 0.03 67.17-0.82L67.17-0.82 67.17-16.38Q67.17-20.39 67.27-20.96 67.36-21.52 67.49-21.73 67.61-21.93 67.82-22.12 68.02-22.31 68.27-22.39 68.52-22.46 68.82-22.43 69.12-22.4 69.61-22.26 70.09-22.12 70.66-21.21L70.66-21.21 71.72-19.52 81.48-3.45 82.01-2.54Q82.14-2.35 82.2-2.38 82.27-2.42 82.28-2.48 82.3-2.54 82.3-4.8L82.3-4.8 82.3-21.55Q82.3-22.09 82.6-22.29 82.89-22.5 83.33-22.46L83.33-22.46Q83.71-22.43 83.98-22.2 84.24-21.96 84.24-21.55L84.24-21.55 84.24-2.92Q84.24-1.69 84.12-1.26 83.99-0.82 83.52-0.38 83.05 0.06 82.49 0.08 81.92 0.09 81.4-0.42 80.89-0.94 80.2-2.1L80.2-2.1 77.12-7.12ZM97.14-21.81Q97.33-22.34 97.55-22.53 97.77-22.72 98.17-22.72 98.58-22.72 98.85-22.48 99.11-22.25 99.11-21.81L99.11-21.81 99.11-13.05 110.97-13.05 110.97-21.77Q110.97-22.18 111.29-22.45 111.6-22.72 111.98-22.72L111.98-22.72Q112.26-22.72 112.59-22.46 112.92-22.21 112.92-21.77L112.92-21.77 112.92-1.26Q112.92-0.82 112.57-0.5 112.23-0.19 111.76-0.25L111.76-0.25Q111.38-0.31 111.18-0.61 110.97-0.91 110.97-1.26L110.97-1.26 110.97-11.01 99.11-11.01 99.11-1.29Q99.11-0.85 98.79-0.58 98.46-0.31 98.08-0.35L98.08-0.35Q97.64-0.35 97.39-0.64 97.14-0.94 97.14-1.29L97.14-1.29 97.14-21.81ZM117.47-8.82L117.5-21.27Q117.5-22.21 118.43-22.28 119.35-22.34 119.35-21.27L119.35-21.27 119.35-9.91Q119.35-7.84 119.7-6.59 120.04-5.33 120.47-4.61 120.89-3.89 121.86-3.11 122.83-2.32 123.84-1.98 124.84-1.63 126-1.69L126-1.69Q127.48-1.79 128.53-2.26 129.58-2.73 130.35-3.45 131.12-4.17 131.54-4.8 131.96-5.43 132.25-6.4 132.53-7.37 132.53-10.07L132.53-10.07 132.53-21.4Q132.53-22.31 133.52-22.4 134.51-22.5 134.51-21.43L134.51-21.43 134.51-8.69Q134.51-6.46 133.78-4.83 133.06-3.2 132.12-2.29 131.18-1.38 130.16-0.8 129.14-0.22 128.09 0.05 127.04 0.31 125.91 0.31L125.91 0.31Q124.21 0.31 123.01-0.17 121.8-0.66 120.72-1.49 119.63-2.32 118.85-3.47 118.07-4.61 117.97-5.52L117.97-5.52 117.47-8.82ZM153.55-5.65L141.5-5.65 139.02-0.25Q138.9 0 138.66 0.16 138.43 0.31 138.1 0.33 137.77 0.35 137.52 0.05 137.27-0.25 137.22-0.5 137.17-0.75 137.3-1L137.3-1 145.55-19.89Q146.27-21.52 146.7-21.84 147.12-22.15 147.53-22.15L147.53-22.15Q147.9-22.15 148.34-21.88 148.78-21.62 149-21.12L149-21.12 157.38-1.85Q157.82-0.88 157.77-0.55 157.72-0.22 157.44 0.05 157.16 0.31 156.78 0.28L156.78 0.28Q156.47 0.28 156.22 0.09 155.97-0.09 155.72-0.69L155.72-0.69 153.55-5.65ZM142.26-7.5L152.89-7.5 152.48-8.44 148.06-18.86Q147.75-19.58 147.57-19.56 147.4-19.55 147.21-19.11L147.21-19.11 142.26-7.5ZM170.05-7.12L162.74-19.08 162.3-19.83Q162.15-19.92 162.1-19.89 162.05-19.86 162.05-19.78 162.05-19.7 162.05-19.33L162.05-19.33 162.08-15.75 162.08-0.82Q162.08 0.03 161.1 0.03 160.11 0.03 160.11-0.82L160.11-0.82 160.11-16.38Q160.11-20.39 160.2-20.96 160.3-21.52 160.42-21.73 160.55-21.93 160.75-22.12 160.96-22.31 161.21-22.39 161.46-22.46 161.76-22.43 162.05-22.4 162.54-22.26 163.03-22.12 163.59-21.21L163.59-21.21 164.66-19.52 174.42-3.45 174.95-2.54Q175.07-2.35 175.14-2.38 175.2-2.42 175.22-2.48 175.23-2.54 175.23-4.8L175.23-4.8 175.23-21.55Q175.23-22.09 175.53-22.29 175.83-22.5 176.27-22.46L176.27-22.46Q176.64-22.43 176.91-22.2 177.18-21.96 177.18-21.55L177.18-21.55 177.18-2.92Q177.18-1.69 177.05-1.26 176.93-0.82 176.45-0.38 175.98 0.06 175.42 0.08 174.85 0.09 174.34-0.42 173.82-0.94 173.13-2.1L173.13-2.1 170.05-7.12Z" transform="translate(-0.9287500381469727, 22.719999313354492)"></path></g> <!----> <!----> <!----> <!----> <!----> <!----> <!----></g></g> <!----></g></g><defs v-gra="od"></defs></svg>